<mxfile host="app.diagrams.net" modified="2024-01-16T08:40:07.975Z" agent="Mozilla/5.0 (Macintosh; Intel Mac OS X 10_15_7) AppleWebKit/537.36 (KHTML, like Gecko) Chrome/120.0.0.0 Safari/537.36" version="21.5.2" etag="qcAyT2ogcVkDYkiXfVlT" type="github">
  <diagram name="Page-1" id="QtAgjGMIuR8DVjOFDV-8">
    <mxGraphModel>
      <root>
        <mxCell id="0" />
        <mxCell id="1" parent="0" />
      </root>
    </mxGraphModel>
  </diagram>
</mxfile>
